<svg xmlns="http://www.w3.org/2000/svg" xmlns:xlink="http://www.w3.org/1999/xlink" viewBox="0 0 100 125" x="0px" y="0px"><defs><style>.cls-1{fill:none;}.cls-2{clip-path:url(#a);}</style><clipPath id="a"><rect class="cls-1" x="263" y="-199.57" width="147.35" height="156.56"/></clipPath></defs><title>nounproject</title><g data-name="Layer 4"><path d="M80.12,62.13a3.16,3.16,0,0,1-1,.73c-3.93,1.71-14.26,6.23-25.31,11.3a66.19,66.19,0,0,1-12.46,4.39A18.08,18.08,0,0,1,25,74.21,18.33,18.33,0,0,1,19.15,59l3-29.92a4.75,4.75,0,0,1,5.45-4.22,4.75,4.75,0,0,1,4,5.12l-1.23,13.4A3.38,3.38,0,0,0,36,46.15L62.8,21.87a3.43,3.43,0,0,1,4.63,0,3.43,3.43,0,0,1,.07,5L52.38,41.47a1.51,1.51,0,0,0,1.87,2.35L73.42,31.28a3.06,3.06,0,0,1,3.47,5L58.27,49.77a1.87,1.87,0,0,0-.66,2.12A1.84,1.84,0,0,0,58.67,53a1.87,1.87,0,0,0,1.55-.08l16-8.31a3.12,3.12,0,0,1,3,5.47L60.83,60.85a1.26,1.26,0,0,0,1.1,2.25l14.79-5.91a3.08,3.08,0,0,1,2.42.06A3,3,0,0,1,80.76,59,3.07,3.07,0,0,1,80.12,62.13Z"/></g></svg>